<svg width="40" height="40" viewBox="0 0 40 40" fill="none" xmlns="http://www.w3.org/2000/svg">
<path d="M20 0C8.96 0 0 8.96 0 20C0 31.04 8.96 40 20 40H30V36H20C11.32 36 4 28.68 4 20C4 11.32 11.32 4 20 4C28.68 4 36 11.32 36 20V22.86C36 24.44 34.58 26 33 26C31.42 26 30 24.44 30 22.86V20C30 14.48 25.52 10 20 10C14.48 10 10 14.48 10 20C10 25.52 14.48 30 20 30C22.76 30 25.28 28.88 27.08 27.06C28.38 28.84 30.62 30 33 30C36.94 30 40 26.8 40 22.86V20C40 8.96 31.04 0 20 0ZM20 26C16.68 26 14 23.32 14 20C14 16.68 16.68 14 20 14C23.32 14 26 16.68 26 20C26 23.32 23.32 26 20 26Z" fill="#C7B42E"/>
</svg>
