<svg width="35" height="35" viewBox="0 0 35 35" fill="none" xmlns="http://www.w3.org/2000/svg">
<g clip-path="url(#clip0_50_364)">
<path d="M-4.375 21.8751C-1.93958 20.7813 0.48125 19.6876 2.91667 19.2063V7.29175C2.91667 6.13143 3.3776 5.01863 4.19807 4.19816C5.01855 3.37768 6.13134 2.91675 7.29167 2.91675C9.20208 2.91675 10.8208 4.12716 11.4187 5.83341H7.29167C6.90489 5.83341 6.53396 5.98706 6.26047 6.26055C5.98698 6.53404 5.83333 6.90497 5.83333 7.29175V8.75008H13.125V7.29175C13.125 6.13143 13.5859 5.01863 14.4064 4.19816C15.2269 3.37768 16.3397 2.91675 17.5 2.91675C19.4104 2.91675 21.0292 4.12716 21.6271 5.83341H17.5C17.1132 5.83341 16.7423 5.98706 16.4688 6.26055C16.1953 6.53404 16.0417 6.90497 16.0417 7.29175V21.7876C18.9583 21.3209 21.875 18.9584 24.7917 18.9584V21.8751C21.5542 21.8751 18.3167 24.7917 15.0646 24.7917C11.8271 24.7917 8.58958 21.8751 5.35208 21.8751C2.1 21.8751 -1.1375 23.3334 -4.375 24.7917V21.8751ZM13.125 11.6667H5.83333V14.5834H13.125V11.6667ZM13.125 17.5001H5.83333V18.9584C8.26875 19.1917 10.6896 20.8688 13.125 21.5688V17.5001ZM-4.375 27.7084C-1.1375 26.2501 2.1 24.7917 5.35208 24.7917C8.58958 24.7917 11.8271 27.7084 15.0646 27.7084C18.3167 27.7084 21.5542 24.7917 24.7917 24.7917V27.7084C21.5542 27.7084 18.3167 30.6251 15.0646 30.6251C11.8271 30.6251 8.58958 27.7084 5.35208 27.7084C2.1 27.7084 -1.1375 29.1667 -4.375 30.6251V27.7084Z" fill="black"/>
</g>
<defs>
<clipPath id="clip0_50_364">
<rect width="35" height="35" fill="white"/>
</clipPath>
</defs>
</svg>
