<svg width="35" height="35" viewBox="0 0 35 35" fill="none" xmlns="http://www.w3.org/2000/svg">
<path d="M17.5 30.625L22.75 23.625C21.2917 22.5313 19.4688 21.875 17.5 21.875C15.5313 21.875 13.7083 22.5313 12.25 23.625L17.5 30.625ZM17.5 4.375C11.5938 4.375 6.13958 6.32917 1.75 9.625L4.375 13.125C8.02083 10.3833 12.5708 8.75 17.5 8.75C22.4292 8.75 26.9792 10.3833 30.625 13.125L33.25 9.625C28.8604 6.32917 23.4063 4.375 17.5 4.375ZM17.5 13.125C13.5625 13.125 9.93125 14.4229 7 16.625L9.625 20.125C11.8125 18.4771 14.5396 17.5 17.5 17.5C20.4604 17.5 23.1875 18.4771 25.375 20.125L28 16.625C25.0688 14.4229 21.4375 13.125 17.5 13.125Z" fill="black"/>
</svg>
