<?xml version="1.0" encoding="UTF-8"?>
<svg xmlns="http://www.w3.org/2000/svg" version="1.1" width="300" height="300" viewBox="0 0 300 300"><rect x="0" y="0" width="300" height="300" fill="#ffffff"/><g transform="scale(9.091)"><g transform="translate(0,0)"><path fill-rule="evenodd" d="M8 0L8 1L10 1L10 0ZM16 0L16 1L17 1L17 0ZM18 0L18 1L19 1L19 0ZM20 0L20 2L22 2L22 5L24 5L24 7L23 7L23 6L22 6L22 8L24 8L24 7L25 7L25 3L24 3L24 1L25 1L25 0ZM14 1L14 2L11 2L11 4L10 4L10 3L9 3L9 2L8 2L8 5L9 5L9 6L8 6L8 7L9 7L9 8L8 8L8 10L6 10L6 9L7 9L7 8L6 8L6 9L5 9L5 10L4 10L4 11L3 11L3 10L2 10L2 9L4 9L4 8L0 8L0 12L2 12L2 13L0 13L0 14L1 14L1 15L0 15L0 16L1 16L1 15L2 15L2 17L1 17L1 19L0 19L0 22L2 22L2 20L3 20L3 21L4 21L4 22L3 22L3 23L1 23L1 24L0 24L0 25L1 25L1 24L2 24L2 25L3 25L3 24L4 24L4 25L8 25L8 26L9 26L9 27L11 27L11 28L10 28L10 30L11 30L11 28L12 28L12 29L13 29L13 28L12 28L12 26L13 26L13 27L14 27L14 30L13 30L13 33L15 33L15 32L16 32L16 33L17 33L17 32L18 32L18 33L20 33L20 32L18 32L18 31L19 31L19 30L18 30L18 29L20 29L20 30L21 30L21 31L22 31L22 32L21 32L21 33L22 33L22 32L23 32L23 33L24 33L24 32L26 32L26 33L31 33L31 32L30 32L30 31L29 31L29 32L27 32L27 31L28 31L28 30L26 30L26 29L29 29L29 30L31 30L31 29L32 29L32 30L33 30L33 29L32 29L32 28L31 28L31 27L32 27L32 26L31 26L31 25L32 25L32 23L33 23L33 21L32 21L32 20L30 20L30 19L32 19L32 18L33 18L33 17L32 17L32 18L30 18L30 17L31 17L31 16L32 16L32 14L31 14L31 15L30 15L30 16L27 16L27 15L26 15L26 14L28 14L28 15L29 15L29 14L30 14L30 12L29 12L29 10L28 10L28 12L29 12L29 14L28 14L28 13L26 13L26 12L24 12L24 11L25 11L25 10L24 10L24 9L21 9L21 8L19 8L19 6L20 6L20 7L21 7L21 6L20 6L20 4L21 4L21 3L20 3L20 4L19 4L19 5L18 5L18 3L19 3L19 2L18 2L18 3L17 3L17 4L13 4L13 5L12 5L12 3L15 3L15 1ZM10 5L10 6L9 6L9 7L10 7L10 8L9 8L9 9L10 9L10 10L9 10L9 11L6 11L6 10L5 10L5 12L7 12L7 13L4 13L4 12L3 12L3 11L2 11L2 12L3 12L3 13L4 13L4 14L3 14L3 15L5 15L5 16L7 16L7 17L6 17L6 18L5 18L5 17L2 17L2 19L1 19L1 20L2 20L2 19L3 19L3 20L5 20L5 22L4 22L4 23L6 23L6 24L8 24L8 25L9 25L9 26L11 26L11 25L12 25L12 24L13 24L13 26L14 26L14 27L15 27L15 28L16 28L16 30L17 30L17 31L18 31L18 30L17 30L17 29L18 29L18 27L19 27L19 28L21 28L21 25L20 25L20 27L19 27L19 26L18 26L18 27L17 27L17 28L16 28L16 25L19 25L19 24L18 24L18 23L20 23L20 24L22 24L22 23L20 23L20 22L21 22L21 21L20 21L20 22L19 22L19 21L18 21L18 20L19 20L19 19L21 19L21 20L22 20L22 21L24 21L24 20L25 20L25 22L24 22L24 23L25 23L25 24L27 24L27 23L28 23L28 24L29 24L29 26L30 26L30 25L31 25L31 23L32 23L32 22L31 22L31 21L28 21L28 20L29 20L29 19L30 19L30 18L28 18L28 17L27 17L27 19L26 19L26 20L25 20L25 18L24 18L24 17L26 17L26 15L25 15L25 16L24 16L24 17L21 17L21 16L20 16L20 15L21 15L21 13L22 13L22 14L23 14L23 15L24 15L24 13L22 13L22 10L21 10L21 9L20 9L20 10L19 10L19 9L18 9L18 10L16 10L16 8L17 8L17 7L18 7L18 6L17 6L17 5L15 5L15 9L13 9L13 7L14 7L14 5L13 5L13 7L12 7L12 5ZM10 6L10 7L11 7L11 8L12 8L12 7L11 7L11 6ZM16 6L16 7L17 7L17 6ZM25 8L25 9L26 9L26 10L27 10L27 9L26 9L26 8ZM28 8L28 9L30 9L30 10L32 10L32 11L31 11L31 13L32 13L32 11L33 11L33 8L32 8L32 9L31 9L31 8ZM14 10L14 11L11 11L11 13L10 13L10 12L9 12L9 13L7 13L7 14L6 14L6 15L7 15L7 16L8 16L8 17L7 17L7 18L6 18L6 19L7 19L7 18L8 18L8 21L7 21L7 20L6 20L6 21L7 21L7 22L6 22L6 23L8 23L8 24L10 24L10 25L11 25L11 23L14 23L14 22L17 22L17 21L14 21L14 20L13 20L13 18L14 18L14 17L12 17L12 16L14 16L14 15L15 15L15 14L14 14L14 13L13 13L13 14L12 14L12 12L15 12L15 10ZM19 11L19 13L18 13L18 12L17 12L17 13L16 13L16 15L17 15L17 14L18 14L18 18L17 18L17 20L18 20L18 18L21 18L21 17L19 17L19 15L20 15L20 14L19 14L19 13L20 13L20 12L21 12L21 11ZM9 13L9 14L7 14L7 15L8 15L8 16L9 16L9 19L11 19L11 20L12 20L12 19L11 19L11 18L12 18L12 17L11 17L11 18L10 18L10 16L9 16L9 15L10 15L10 13ZM11 14L11 16L12 16L12 14ZM13 14L13 15L14 15L14 14ZM15 16L15 20L16 20L16 17L17 17L17 16ZM3 18L3 19L5 19L5 18ZM22 18L22 19L23 19L23 20L24 20L24 19L23 19L23 18ZM27 19L27 20L28 20L28 19ZM8 21L8 23L9 23L9 21ZM11 21L11 22L10 22L10 23L11 23L11 22L12 22L12 21ZM26 21L26 23L27 23L27 21ZM28 22L28 23L29 23L29 24L30 24L30 23L29 23L29 22ZM15 23L15 24L14 24L14 26L15 26L15 25L16 25L16 24L17 24L17 23ZM25 25L25 28L28 28L28 25ZM26 26L26 27L27 27L27 26ZM22 27L22 28L23 28L23 27ZM30 28L30 29L31 29L31 28ZM8 29L8 33L10 33L10 32L12 32L12 31L10 31L10 32L9 32L9 29ZM21 29L21 30L22 30L22 29ZM23 29L23 30L24 30L24 29ZM23 31L23 32L24 32L24 31ZM32 31L32 32L33 32L33 31ZM0 0L0 7L7 7L7 0ZM1 1L1 6L6 6L6 1ZM2 2L2 5L5 5L5 2ZM26 0L26 7L33 7L33 0ZM27 1L27 6L32 6L32 1ZM28 2L28 5L31 5L31 2ZM0 26L0 33L7 33L7 26ZM1 27L1 32L6 32L6 27ZM2 28L2 31L5 31L5 28Z" fill="#000000"/></g></g></svg>
