<svg id="Layer_1" data-name="Layer 1" xmlns="http://www.w3.org/2000/svg" viewBox="0 0 1029 971"><defs><style>.cls-1{fill:#c7b42e;}</style></defs><path class="cls-1" d="M486.79,641.6c-3.12.17-4.05.86-5.34,3.46-3.16-.28-3.45-.64-3.55-4.69l15.84-9.19c-3.6-2.19-8.37,1.76-9-4.59,48.78-26.83,102.85-40,157.71-47l1.16-3.11c-4-1.38-11.47-2-10.83-7.4,4.88.64,7.77,3.15,12.12-.49,14.82-5.67,31.92-.39,47.5-.68,29.6,1,60.6,1.84,88,14.21,1.13.59,2.46,1.26,3.5-.52l-.9-2.5c4-1,7.43.79,11.31,1.16l-4-5.33c2.5-2.22,7.34,4.28,9.81,5.57-1.62-3.57-5.64-4.59-7.39-7.87,4.33-5.55,16.77,16.4,22,11-2.54-2.65-22.49-16.14-18.08-18.57L809,575.65c3.69-6.58,5.49,3,10.4.58a20.29,20.29,0,0,1,6.28-.37c36.24-.78,63.63,18.92,91.88,38.22-.15-2.72-2.79-5.06.14-7.28l5,2.17c-2.27-6.36-.6-7.59,5.2-4.69-.15,2.6,13.62,22.37,16.43,21.68-2.55-3.4-13.41-23.19-16.51-21.54,0-1.13-.53-2.42,1.08-3.09,10.41,8.71,16.46,21.87,25,32.29,16.85,17.3,25.68,40.23,36,61.64,7.91-6.52,13.65,2.74,18.7,8-4.3-15-3-30-7.18-44.92-2.47-11.52-3.39-25.09-11.34-34.24-19.5-18.79-36-41.86-59.11-56.41-8.23-4.1-16.06-9-24-13.71-4.52-1.65-1.94-3.63-4.68-5.18-8.82-6-20-4.38-30.06-7.68-19.25-3.46-38-9.25-57.1-13.14-25.61-2.87-51.33-2.16-77.05-2.1-5.51-1-13.83,2.19-16.71-4.13,32.59-4.18,66.49-6.88,99-.42,21.76,4.87,43.42,10.09,64.63,17.07,1.58.5,2.82.58,3.47-1.8-28.55-11.1-58-21.26-88.42-25.54-15.65-3-32.33-1-47.73-3.59-27,3.72-54.72.17-81.8,4.76-14.64,3.43-30.28,2.95-44.11,8.9,15-.18,29.11-4.88,44.24-2.56l-6.32,4.93c2,8.88-16.86,6.75-22.71,9.07-6.17,1.6-14.11.68-19.5,3.86,1.07,2.06-.86,1.89-1.71,2.14a146,146,0,0,0-30.83,8.27l.09.65,34.61-3.54c1.62,3-1.15,2.28-2,2.92l3.11,1.88c-20.16,5.88-43.15,4.31-61.11,15.88,17.06-1.06,32.8-9,49.66-10-1.64,2.1-4.41,1.92-6.3,3.35l1.35,2.44c-12.95,1.1-24.11,7.08-36.75,10.87,2.69.93,3.84,2.22,2.88,4-22.64,2-44.61,9.1-64.92,19.2-16,15.48-35.67,27.72-52.58,42.45-19.31,19.2-35.51,41.72-52.69,62.66-2.82-2.48-2.9-2.86-1.23-5.58,5.73-9.12,10.33-18.93,15.71-28.27,5.91-7.8,4.29-17.7,5.44-26.9A243.67,243.67,0,0,1,430,608.07c2.72-20.41,13.21-38.37,20.49-57.33-6.68-4.2,1.06-9.22,3.24-13.79l-.32-.41-5.23,3.33-1.75-2.31c3.52-5.81,11.56-11.2,11.85-17.82.42-1.14,2.89-2.36,4.26-.79a36.77,36.77,0,0,1-3.81,5.86c4.25-1.33,8-6,10.32.68,3.66-2.56,10.1-8.76,12.49-1.83,5.15-1.09,10.06-4.09,15.74-2.82,8.85-3.2,18.47-2,27.46-4.19,16.89-5,34.26-11.65,48.25-22,1.45-1.25,2.47-3.07,4.74-3.2,1.7-1.22,2.79-5.27,4.69-5.79,7.8-4.15,13.13-11.17,20.26-16.26-23.31,5.95-45.7,13.27-68.77,19.82-31.15,8.63-63.66,16.58-91.24,34-5.45,2.46-9.44,6.34-13.89,9.67-1.7.57-3.39-.77-5.43-1.5.89-2.15,1.7-4.09,2.42-5.84-11.53-11.68-29.15-6.06-43.65-4.71-7.48-1.87-14.35-6.17-21.13-9.89-1,3.42-1.9,4.07-4.9,2.66-4.41-2.83-11.92-4.39-12.15-10.68-7.06,0-3.34-4,2-3.34-2.07-3.66-6.63-5.38-5.77-9.13a1.19,1.19,0,0,1,2.2,0c-.56,1.63.56,1.55,1.58,1.91,9.44,6.84,19.88,12.23,29.17,19.54,13.86,10.6,31.27-1.35,46.89,1.22-10.86-6.2-14.37-21.51-26.13-25.38-15.82-14.59-31.43-28.55-45.36-45.09l-.67.59c1.2,2.38,6,6,1.18,7.53-7.82-9.35-11.12-25.38-26-15.83-5.87,3.08-5.33,1.82-10.82-.32a5.87,5.87,0,0,1-5.4-1.87c-13.32-6.47-6.69,8.79-3.86,14.92.88,1.91.09,4.39,2.41,5.95.79.52-.46,2-2,1.82-2.44-5.68-4.84-11.3-7.6-17.75-5.42,6.3,4.82,21.89-1.08,23.33-1.38-4.52-1.1-9.29-3-14.16-5.58,8.69-3,19.54-.61,28.75-1.34,4.27,2.35,6.68,4.23,9.84,1.64,3.83,7,1.92,9.49,5,11.16,10.44,16.19,26.68,31.8,31.24,2.11-.83,21.07-5.42,14,.68-17.25,7.41-9.76,11.48-8,25.43,1,16.79-9,33.65-7.81,49.92-4.57,5.59-5.37,11.49-7.48,18l.13.08-2.68-3.15c.8-5.92,5.26-12.85,3.76-19-7.52-10.76-20.55-16.1-31.52-22.69-8.45-6.16-18.51-9-26.59-15.82-3.15-3-8.3-3.55-10.7-7.82a26.9,26.9,0,0,1-4-2c-2-1.07,1.15-2.18,0-3.24-3.82.25-7.56-3.48-9.27-9.46-5.11.7-5.68,4.67-11.33,1-4.35-3.23-11.06-5.13-13.87-9.51l2.43.27c1.15,1.58,1.15,1.58,3.13,1.64l-3.13-1.65c6.22-.51,13.94,5.48,18.86.09.41-.59,1.39-.77,2.11-1.13,1.92,2,.1,4.23,1.86,6.38L249,528c.88,4,4.51,5.56,6.32,8.55l2.65-1.17,2.07,2.5c-1.25,1.78-4.07-.83-4.52,2.14,6.23-2,8.47,5.46,13.56,5.77,3.44-.29,5.08,3.38,8.33,4.1,2.6,1.27,6.36,1.56,7.16,5.43a1.48,1.48,0,0,0,1.3.63c7.58-.85,24,13.17,31.5,17.3,10.1,4,6.86,13.29,13.31,14.94,4.3-15.8.5-32.1,5.29-47.76,1.29-4-1.26-7.9-5-9.87-14.26-6.31-27.42-14.64-40.85-22.54-7.31-4.63-16.3-1.61-24.4-2.55-9.16-1.88-19.13-1.41-27.25-6.25-7-4.13-14.91-9.36-17.61-17.22-9.79-8.26-16.4-20.1-21-32.13-3.91-9.81-3.66-21.09-7.83-30.78-2.19-5.05-8.12-8.52-8.7-14.1l-.05.14c3.49-1.65,5,3.92,7.18,5.74-1-15.92-2.07-32.72-6.66-48.12-5.3-18.75-16.32-39.59-19.63-57.92-5.06-4.78-5.53-12.57-9.14-18.46-2.38,26.06,3.77,51.46,11,76.43,1.15,7.09,18.81,38,9.93,40.08-5.27-11.65-12.86-22.31-17.67-34.45-10.28-26.85-12.7-55.81-12.46-84.44,2.55-8-5.36-36.26,2.74-37.23,4.54,16.49,11.58,31.57,16,48.06,6.49,12.2,12.23,24.67,18.09,37.33l.77-.06c.93-5.44-.55-10.78-1.25-16.17-.48-3.4.87-6.88-.89-10.16,4.34-.82,5.39-.28,9,4.35l5.27-.37c6.3-46.37,35.13-84.37,61.28-121.6,5.11-8.81,11.11-17.35,14.78-26.87,1.86-6.39,4-14,10.38-5.63.41,8.46,4.35,16,8,23.41,1.8-3.6,3-9.18,7.93-6-1.25,4-1.9,8.33-3.79,12.12a97.13,97.13,0,0,0,17.76-15.82c11-13.47,25.36-22.3,37.57-34.67,5.48-1.22,2.38,13.71,5.92,18.57,6.3-2.27,11.57-10.75,18.05-8.81,2.63,1.33,3.41,1.06,5.07-1.44,2.07-4.47,5.89-7.44,8.8-11.11l-1.6-2.33c1.78-3.82,5.52-4.56,7.65-7.87,2.95-3.22,4.16-12,9.87-9.68,4.85,1.82,8.66,5.28,14.21,4.49,5.08,1,8-11.24,18.06-11.69,11.62-4.44,20.93,23,29.79,10,.72-2,2.1-4.08,5.26-3.35,4.5,6.56,3.19,15.45,9.23,21.38,1.84-2.23,4.82-7.75,7.63-3.84,2.76,4.24,6.48,7.49,10.34,10.65,9.82,7.34,15.28,18.4,21,28.95,20,9.61,42.46,19.31,56.63,38.26.1-3.59-1.66-7,1.84-9.68l12.29,11.36c3-5-.76-4.27-2.59-8.21,15.91.91,22.24,27.49,29.15,39.54l3.58-.81,3.5,9.76,5.15-9.93c2.67.08,4.34.88,4.45,3.62,11.85,16.24,18.2,35.49,16.48,56.16,1.38,34.08-8.9,65.9-16.73,98.46,19.56-11.75,28.8-32.27,44.33-47.95a3.85,3.85,0,0,0,1.31.66c5.72-.46,3.44,5.94,5,9.54-.16,5.8,4.46,10.24,2,15.62-.16,9.58-5,18.68-4.6,28.11,1.73,7.47.09,14.79-3.07,21.29-13.75,24.67-42.07,37.39-65.93,50.56C593,485,581,502.79,561.52,511.4a138.52,138.52,0,0,1-54,14.41c-9.71,1-19.34,2.49-27.75,7.81-18.88,10-18.74,21.29-24.15,40-1.54,4.83-2.67,9.91-6.38,13.83-1.11,1.17-2.57,2.94-2.39,4.23.52,9.11-.87,18.1-.88,27.22,63.6-95.73,192-119.45,299.9-118.91,21.28,1.28,42.92-1.13,63.86,4.06,40.08,9.48,80.34,21.71,116.28,42.15,51.76,32.23,80.8,72.67,87.82,134,3.38,17.09-.72,38.33,13.67,50.87-8,4.48-2.12,15.23-2.12,22.64.8,7.91,7.07,16.19,1.72,23.4,0,.17-1.16,0-1.83.06-6.45-24.06-10-50.57-26.81-70.1l-.85.42c.5,2.49,2,4.6,2.82,6.94,1.36,5.61-5.63,3.63-7.48.68-8.73-11.92-13.25-26.31-19.82-39.45-9.76-20.83-22.11-44.17-47-48.06-.2,1.22-.38,2.35-.53,3.31-23.93-.07-26.65-46.77-104.33-48.59,11.76,26.68-15.67,6.63-26.84,3.06-3.82,2.26-3.05,9.09-8.2,6.56A116.06,116.06,0,0,1,773.39,586c.17-2.77-2.24-2.46-3.73-3-38.14-11.38-78.51-9.85-117.82-10.86l-.1.73,18.73,7.66c-3.5,6.09-12.34,0-17.87,3.36-18.25,5.19-38,6.52-56.9,10-30.55,5.39-60.3,15.65-88.73,28,.1.29.2.58.29.88,7.1-3.07,26-7.6,30.72.28-3.29,2.44-8.4,1.74-11.55,4.11-3,5.5-13.93,9.28-19.85,12.3-17.43,6-28.27,20-39.83,33.32a544.56,544.56,0,0,0-54.44,69.51c-8.81,11.1-15,24.13-23.74,35.09.79,4.49-5.57,5.44-4.85,9.7-15.18,21.87-29.19,44.51-42.46,68.2-11.47,18.63-15,40.53-24.4,60.12-1.59,4.71-1.43,9.83-3.77,14.36-6.28,13.23-6.06,27.89-12.21,41.07-8.15-7-8.88-26.76-15-36.88-6.54-14.56-15.58-28-22.65-42.33-6.81-17.13-21.94-28.54-29.73-44.94-5.12-16.25-4.66-37.18,11.74-46.89,15.06-12.85,25.17-40.36,29.5-59.63,8.48,2.1,4.22-53.1.51-58.31,5.95-1.62-1.83-23-2.6-27.23-1.51-7.6-8-20.42-13.92-25.69l2.3-1.82c-5.29-8.8-14.42-13.29-20.05-21.26-.07-.22-.33-.57-.42-.55-2.22.6-2.76-1.37-3.89-2.47-12-2.07-22.55-10.15-33.6-15.24-5.7-1-8.2-3.66-13-5.35-2.12-.48-8.54-3.27-3.6-4.55,2.21,1.63,5.16,2.17,5.57-1.8,2.8,3.31,7.47,3.08,10.67,5.83,1.16-.82,2.44-1.76,3.81.2,15.29,7,24.36,7.57,38.87,20.21l-3.84.18c1.32,2.66,4,1.32,5.5,3.76a18.45,18.45,0,0,0,3.17,4.41c8.5,4.73,14.65,11.93,20.49,19.54,14.22,20.23,20.51,46.59,22.28,70.92-1.34,4.17.13,8.32.45,12.33-3.94,12.4-.7,26.86-4,39.69-5.15,18.27-11.69,37.46-24,52.17-1.79,2.25-1.41,3.56.92,5.08,20.58,18.15,28.36,47.65,36.8,73l-2.45,1.51L306,899.35c3.16-5.85-6.79-43.55,4-37.58.24,17.19.64,20.3,3.05,23.62,3.2-3,5-6.34,2.95-10.79a115.08,115.08,0,0,0,1-18.42c1.14-6.95-3.34-3.83.07-12l4.24-1c-2.2-6,3.2-11.17,5.14-2.92,5.41-4.3-1.2-11.29,2.48-16.06l3.58.36c.31,2.37.6,4.49,1,7.36,4.79-7.13,2.2-14.79,3.27-22.48,4.46-.84,4.46-.84,5.19,3.65,2.39-4.74,2.25-10.07,3-15.5l3.54,1c.09,2.16.17,4.06.27,6.31,6.7-3.87,4.82-12.31,5.77-18.79,6.05-.34,3.39,2.83,4.26,6.84,5.5-4.79,7.12-6.91,6.25-11.55l-3,2.47c-7.63-5.32,7.32-6.69,7.57-18.78l4.29,1.89c2.39-4.87,1.36-9.64,3.26-14.74l4.47,1.33c4.89-3.65,4.16-10.47,5.86-15.81,1.83-5.14,6-.41,4.27,3.53,7.32-4.92,5.77-16.08,9.39-23.88,6.06,2.2,5-9.36,9.35-12.47l3.5,1.58c0,3.39,0,6.35.07,9.21-2.92,1.35-2.86-2.5-5.21-2.43-1.81,4.43-4,8.85-4,14.45,4.13-3,7.1-9.54,12.21-10.25,2.12,1.07,2.67-.14,3.7-1.48C442.09,690.8,461.09,662.15,486.79,641.6Zm139-119.75c-1.74-2-1.89-1.93-3.05.49-1.2-.43-2.41-.9-3.55.21,1.15.05,2.4,1.69,3.43-.3ZM498.12,369c.64-1.64,1.26-3.21,1.87-4.78l-.7-.5c-4.27,4.19-8.5,6.88-11.06,12.69a10.51,10.51,0,0,0,5.72-7.88C495.2,368.7,496.47,368.85,498.12,369Zm425,246.74c1.38,4.46,1.38,4.46,3.89,3.49,2.13,2.19,5.1,1.94,7.6,3.06l.63-.72q-4.31-6.55-8.62-13.12l-.93.43c.36,3,5.53,9.1,1.29,10.42ZM251.4,842.42c-6.53-1.31,1.33-11.21.76-15.62-6.1,1.71-2.6,15.19-9.77,11.36.29-5,3.15-9.34,4.6-14.25l-2.08-1.53C228,845,261.32,863.53,269.3,883c9.19,17.5,19.54,34.32,27.59,52.32,1.62-14.94,2.3-29.06-2.34-42.52-9.88,1.16-6-10-7.43-16.15l-1-.23c-3.2,3-1.37,11.52-6.6,11.45-5.37-2-.28-9.7-1.19-13.94-7.44.65-4.05-6.08-5.95-10.84l-.84-.05c-1.11,3.07-5,8.1-6.94,2.89-.37-6.67,2.74-13.05,3.44-19.69-2.58,3-3.13,7.26-4.71,10.84-9.34,8.68-3.16-13.64-1.62-17.7-2.85,2.09-2.13,6-5.61,6.57-4.28-2.22-1.48-9.23.1-12.62-1.26.54-1.76,1.39-1.27,2.62C253.79,838.1,252.61,840.22,251.4,842.42Zm13.2-352.69.53-.78a7.8,7.8,0,0,0-5.63-3c.3-3.09.78-3.47,3.06-2.12,5.73,4.07,12.09,7,18.41,10l.49-.72c-3-4.06-29.87-21.71-21.85-24.72a98.46,98.46,0,0,1,16.8,13.09c3,4.19,6,8.11,11.31,9.91-7.42-12.21-14.59-26.54-28.53-31.75l1.28,1.94c-.13.25-.26.49-.38.74-18.84-10.62-39.43-18-56.26-32,1.12,19.78,13.34,37.39,26.86,50.78,8,11.65,21.67,17.24,35.65,15.63-7.55-4.91-15.31-9.12-21.89-15C247.44,475.84,260.59,487.54,264.6,489.73Zm387.1-86.14a7.59,7.59,0,0,1-3.36,2.39c.47-4.79,4.18-8,5.82-13.08-26.29,21.26-53.35,42.09-71.61,71.69,27-6.06,55.37-14.43,75.64-34.24,5.91-11.39,13-23.55,14.61-36.43-3.68,5.72-5.85,12.21-10.22,18.36-1-3.53,1-5.74,1.28-8.83l-2.54,3c-3.19-8.15,5.08-16.37,7-24.28,1.07-3.33,1.5-6.8,3.85-9.59l-.84-.44C666.94,383.48,658.14,393.1,651.7,403.59ZM424.18,139.35c-7-3.07-9.83-20.7-19.08-13.68-8.47,6.45-17.18,12.59-22.88,21.81-4.45,7.62,12.77,16.85.25,24.58l-2.09-4c-10.12.86-3.91-12.76-11.6-17.05-6.43,2.78-13,9.82-20.09,8.56-2.51-2.54-2.78-6.28-6.94-7.37-2.52,2.87-5.85,4.49-9.78,5.59-8.51,4.83-14.18,14.58-21.61,21-15.06,13.61-20.6,11.67-13.52,33.85.85-2.75,1.48-4.78,2.18-7,2.88.81,6.45-1.09,7.28,3.6,4.48-1.83,5.26,2.33,6.95,4.31,2.14,3.11,4.89,5.09,6.94,8.4,19.21-21.58,44.05-17.22,57-37.48,2.23-3,4.14-6.61,7.94-7.82l.54.64c-.35,1-.69,2-1.19,3.48l3.88-2.62c-1.14-7.16,2.43-17.51,11.15-15.86v7.4c3-1,5.93-1.61,8.78-.13-1.19,5-3.5,6.39-10.9,6.44L395.94,173c-1.3,1.73-2.48,3.31-3.88,5.16,6.67,1.48,11.58-1.67,18.34-2.4-.88-4.84-1.76-9.67-2.68-14.76,5.33.25,3.1,8.59,5.42,12.35,1.37-3.34-1.27-9.32,3.21-10.46,1.32,1.88,2.69,3.8,4.18,5.9l3.19-.49c.88-1.27.93-3.48,3.71-3.22l2.57,4.25c4-7.21,7.24-14.67,15.76-17.43-2.05-1-4.89,2.06-5.49-2.74-1.31,3.45-1.74,4.56-4.54,6.51-.93-2.08-1.67-3.72-2.66-5.91l-4.19,3.65-2.8-7.78-.06.14C427.86,142,427.54,141.09,424.18,139.35Zm-3.26,168.4c6.07,5.73,12.14,11.6,17.15,18.3,5.43,2.5,7.68,8.92,11.47,13.3a51.6,51.6,0,0,1,10.88,14.27c1-8-5.74-14.66-4.48-23,3.68,1.44,1.27,7,5.71,7.58,3.93,6.17,4.41,14.67,6.81,21.84,5.92-6.86-1.09-15.83.07-23.68,4.58-1,3.59,10.56,5.48,13.74,2.47,4.45,5.61,2.11,3.78,9.6,3-4.19.38-9.4,2.38-14,3.34,1.77,2.51,4.74,2.69,7.3l7-1.31c.74-1.65.86-5.51,3.33-6.61,2.37,2.39.2,5.19.52,8.24,2.94-.88,4-5.42,7.63-3.53-.37,2.46-.71,4.7-1,6.95l.89.26c.6-1.45,1.19-2.89,1.81-4.38,2.51-.12,1.85,2.56,3.19,3.31-.58,1.84-1.1,3.51-1.62,5.18l.75.47,5.2-5.58c4.48,1.43,5.9-4.22,10.94-5.17,4.72-1.92,8.7-11,14.23-7.34l-4.26,8.09,6.73-5.34,3.08,1.94L558,335.54c-6.12-10-12.21-20.12-18.45-30-4.09-7-11.45-11-14.84-18.6-11.16-17.25-19.6-34.17-28.38-52.89-1.63,7.67-5.57,12-11.16,17-6.37,6.76-7.15-14.5-9.48-18.08-6.39.23-3.19,6.3-5.66,10.43-.63-2.5-1.81-4.19-4.65-4.6-23.78,20.06-46.06,42-67.62,64.55-3.38,3.78,5.87,7.38,4.26,11.48-3.46,9.7-9.88-7.72-13.25-10.26-12.3,16.73-19.47,22.84-37.5,32.69-1.65,9.7-7.44,17.46-8.79,27.24-5.86-1.33-.95-8.54-.85-12.44-5.58,5.84-8.33,14.44-16.16,17.45-1.56,3.06-.72,7.15-5.61,7-.4,1.87-.82,3.81-1.27,5.95-6.33-2.58,1.13-9.94,1.33-14.49-11.66,12.09-15.69,27.86-21.32,43.39,3.18,2-1.43,5,1.22,8.05L295.4,418c-.32,4.74-.32,4.74,3.94,7.19,3.26-1.46,6.61-4.69,9.86-2,3.11,1.8,7,2.51,9.1,6,8.67,3.88,10.43-10.89,25.34-1.2,0-4.23-4.59-7.29-1.07-10.92,5.61,6.12,7.52,23.55,15.21,25.39-2.16-5.17-8-9.56-5.82-15.58-.64-5.08-5.35-9.53-6-14.74,6.62,2.63,6.2,11.38,12.56,14.88.3-4.13-4.08-7.36-2.77-11.84,5.55,3.65,11,27.35,16.21,24.78,1.15-4-1.1-10.08,2.69-12.18.19.9.33,1.56.49,2.3l3.24.07c.54,2.75.05,5.87,2.75,8.27,1.5-4.17-.82-8.83,1.91-13.18,2.58,5.79,0,10.77,1.95,16.6.33-3.46.65-6.92,1-10.59,3.17.69,1.44,4,3.25,5.5l4.54-2.06c.13,1.37.22,2.41.31,3.45l.45.18a142.35,142.35,0,0,0,3.91-15.06c1.71,2.44,1.3,4.76,1.65,7.22.52-1.26,1.05-2.52,1.71-4.11,5.1,9.65-9.07,20.87-3.74,31.49,3.58-5.92,3.73-13.09,7.36-19l3.28.85,7.57-14c1.64,9.48-8.26,15-7.74,25.61,5.8-7.42,9.53-15.4,13.55-23.27.29,5-2.28,9.19-3.94,14.29,11.72-9,20.05-22.05,32.51-30.49,7.67-5.93,16.92-9.08,24.92-14.86-8-25-23.16-46.74-39.06-67.47-7.07-7.59-16.77-13.2-21.07-23.17l-.07.13A5.06,5.06,0,0,1,420.92,307.75Zm-121.6,52,.59.15c1.59-2.73,1.58-10.19,4.86-10.53,3.39,13.79-8.1,25.71-6.13,39.49l.87.12c4.33-11.93,8.65-23.87,13.25-36.55,3.85,5.74-4.15,13.72-1.42,16.34,13-17.75,29-32.24,48.79-42.33-29.77-16.29-42-55.65-54.63-84.79-3.46-3.75,1.13-7.09-1.24-11.77-3.51,5-8.81,16.32-16.1,11.59l2.62-2.23c-3.39-3.69-4.23-8.37-5.76-13.29-24.27,18.3-43.6,42.14-61,67-4.94,7.6-4.23,17.36-11.32,23.62-5.59,11.66,2.44,20.2,9.22,28.94,3.32,3.94,6.57.21,11.75,6.33.33-1.36-2.25-2.58-.2-3.87,9.22-3.7,14.45,9.36,21.39,13.43l.77-.36c.07-3.19-3-8.33,1.18-9.68L264.7,359c.41-2.88-1.59-6.48,2.43-7.94,4.52,2.56,5.6,7.19,7.83,11.31.35-5.27.62-10.34,4.88-14.19,5.86,6.29,5.34,10.48,7.32,18.05,4.53-1.42,4.29-5.33,5.26-8.65,1.35,3.15-.8,6.91,2.29,10.42,2.39-6.33,3.13-12.5,4.84-18.38l1.07.21C300.19,353.14,299.75,356.43,299.32,359.71ZM528.2,399c-3.53,3.95-11-1.06-11.63-6-1.1-4.44,1.21-8.12,1.1-12.48-5,.86-6.93,5.37-10.93,7.83-8.47,5.38-17.07,11.09-20.88,20.84-.64,1.48-1,3.42-3.72,3,.39-3.77,2.75-6.67,4.43-10.37-6.8,2.4-13.12,6.33-16,12.87-1.15,2.58-4.42,2.3-3.45-.79.07-.19-.11-.46-.35-1.3-3.64,3.91-6.63,8.74-11.78,10.27-.2-1.48-.56-2.08-.25-3.75-11.51,11.83-19.82,25.29-30.6,37.43l-1-.68q2.56-4.86,5.15-9.72l-.77-.58c-3.06,3.32-6,7.16-10,9.25-2.53,5.63-7.48,8.4-7.18,15.4,6.39,1.17,2.48,7.47,3.68,12.26l7-2.51c-.76,7.32-2.64.27-4.32,6.82l5.49.29,4.53-7.64c4.88,6.17-8.22,12.77-6.62,20.61,2.59-1.6,3.3-4.86,6.58-5.38,1.74,3.75-.84,7.55.27,11.33,4.8,1.77,12.49-9.59,17.53-11.7,2.18-1.45,4.1-1.22,5.52.55,1.72,5.31-8.71,10.53-11,15.62a121.65,121.65,0,0,0,21.92-18.84c3.3-2.43,8.93-12.71,12-5.14,2,0,4.36-2.6,6.43.89-3.49,6.08-9.63,9.93-15.14,15.33,31.19-10.65,62.63-20,94.36-29.44l-3.85-2c8-26.58-6.22-55.57-19.44-78.35C532.27,394.45,529.59,395.88,528.2,399ZM353.34,283.52a109.92,109.92,0,0,0,.66-26.63c.1-2.82-.4-4.37,2-6.74,1.45,5.9.4,11.33,1.63,16.68l2.66-.19c3,5.13,2.51,9.69,2.85,15.66,8.56-8.38-1.27-21.06,4.73-29.71.61,7.19,1.19,14,1.77,20.72,4.5,1.41,3.07-3.88,5.93-4.65.62,10-4.09,4.14-3.16,9.82.71,3.6-2.69,6.91.42,10.13,2.54-4.84,3.05-11.37,10.26-10.22-.26,3.38-.52,6.77-.78,10.29,2.38-1.37,3.75-5.45,8.23-4.55l-2.35,10.17.33.35c3.6-3.22,5.44-9.67,10.79-10,2.54,1.75.7,4,.3,6.82,20-21.14,41.18-39.78,62.31-59-9.83-11.12-26.25-50.95-43-42.13-5.23,3.21-10-.9-13.54-4.75-5.48-5-15.87,5.66-20.38-3-11.29,23.93-30.62,20.92-49.2,33.28-25.51,22.78-25.21,20.72-10.5,51.85,4.42,2.3,4.17,7.56,7.15,10.95-.18-6.48,1.64-12.89-.37-19.5,3.87-.77,3.37,2.9,5.11,4.05,2.2-.33,1.24-3.33,2.95-4.66,9.18,7.55,2.54,24.85,10.6,33.15-.33-7.15-10-40.78-3.67-43.21,1.2,12.66,5.08,24.73,5.36,37.4l.8-.06C353.27,285,353.33,284.26,353.34,283.52ZM622.84,405.8c5.55-8.32,3.85-20,6.25-29.58,4.28-20.89,3.66-44.27-4.72-64.07.27,3,.53,6.08.79,9.09-3.39,1.08-3.39,1.08-5-4-.27,2.55-.4,4.5-2.5,5.46-3-.17-.94-4.74-2.46-6.85-3.31,5.62-3.68,12.15-9.28,16.08-.8.95-1.61,1.94-3,1.11-7.06-2.46,12.49-36.69,1.6-40,1.14,4.76-2.12,7.83-3.93,11.73,2,1.95.67,3.81-.46,5.79s-2.74.76-4.29.66l-8.52,14c-5.94-4.35-6.38,5.4-10.82,6.69-8.18-.06-11.66,22.81-19.3,15.34-2.29-3.1-2.34-3.08-5.33-.56-1.61,1.35-3.47,2.23-4.68,4.28-2.24,2.87-.35,7.33-3.84,9.76-6.38,3.76-6.15.52-8.81,9-3.33-1.69-.26-4.09-1.28-6.33-17,9.31-6.24,11.38-8.9,25.72,3.74-2,8-8.46,11.86-3.43,10,11.16,16.3,24.58,22.69,38.12,1-1.69,1.82-3.07,2.64-4.47l-5.72-4.51c2.45-5.18,8.35-20.36,14-20,5.14,2.23,10.62,4.86,10.19,11.39,1.15-3.11,2.31-6.21,3.48-9.34,5-1.11,6.17,5.22,10.31,6.74,8,4.52,4,10.95,2.08,18.08,6.14-4.75,9.25-16.36,18.45-14.56,1.46,2.81-1.47,2.71-2.06,3.25-.06,2-.11,3.46-.16,5.23C615.76,412.35,619.41,409.18,622.84,405.8ZM215.78,422.56c1.1-6.11,14.06,7.86,17.71,8.84.41-2.1-1.2-2.42-1.87-3.36-2.55-8.28,11.27,5,14.38,4-1.31-2.31-6-6.95-1.09-7.1,1.55,0,2.94.12,4.19,1.56,6.24,7,12.09,13.89,18.75,20.55.22-6.08-16.13-28.84-12.6-31.69,4.91-.48,8.75,14.74,11.75,18.77,1.51,3.28,1.23,3.41,5.7,4.57-2.9-6.06-2.22-12.86-6.34-18.17a1.79,1.79,0,0,1,.78-2.93c4.21.09,4.32,6.32,6.31,9.3,3.52-.87,2.57,2.67,3.85,4.45,1.24-2.6.58-6.47,4.85-7.13.91,2.23,1.77,4.33,2.69,6.56,4.22-3.95,5.86-8.88,7.37-13.69-31.8-20.56-60.21-47-84.18-76.28l-2.73,4.21c-2.2-6,0-12.63-6.8-15.3-3-3.58-3.5-8.64-6.64-12.33-.11,7.57.73,16.37-7.22,20.67,7.48,17.72,10.38,36.25,11.3,55.33,3.85,9.59.09,25.22,9.21,31.14a4,4,0,0,0,1.74.78c4.91-.2,7,5.75,12.06,4.64,3.28-.1,5.15,4.23,9.24,2.83ZM520.39,259.14c-.22-3,.08-3.59,2.52-4.33,5.68-1.66,6.58,8.92,9.19,12.46,6.06-1.2,1.24-17.24,8.35-18.53-.1,1.12-.2,2.17-.29,3.22,7.39,0,1.84,16.56,5.46,21.73,2.18-10.53,6.7-19.58,12.69-28.36,2.5-5.31,6-2,9.44.8a7.94,7.94,0,0,0-2.24,4.56c4,1.1,4-14.78,5.7-17.84a5.12,5.12,0,0,0-1-5.52c-6.12-7-10.76-14.91-15.74-22.65-9.29,1.12-13.49-11.53-20.23-16.36l-.67.45,6,12.59c-3.46,4.49-11.84-17-14.74-19.75l-.82.16c-.36,2.41-.71,4.82-1.08,7.26,1.43.52,3.55-1.07,4.42,1.47-9,16.43-21.7-8.31-30.07-13.77-11.18,9.91-15.85,22.19-15.93,36.75.42,13.35-2.83,13.53,3.65,27,6.64-8.7-2.94-26.65,9.1-26.39a2.15,2.15,0,0,1,2.33,2.19C502.12,232,512.6,246,520.2,261.07A11.47,11.47,0,0,0,520.39,259.14Zm83.76-2.88c.79-6.88,1.92-13.8.29-20.89-.88,4.7-1.76,9.4-2.64,14.14-4.84-.94-.25-9.34-1.27-13-.37-5.5.3-11.26-1.52-16.51-4.9,2.11-.84,7.25-6.16,9.58-2.5-4.57-3.53-9.72-7.1-13.54,4.17,23.54-5.83,45.82-17.52,65.6-5.33,10-10.17,20.24-17.59,29.1,4.15,7.06,8.32,14.17,12.7,21.65,16.38-8.45,24.59-24.36,35.42-38.31,5.3-10,5-21.27,7.5-32.51C604.17,260.29,603.86,258.72,604.15,256.26ZM284.88,202.7l2.93-.68-1.74-4.84c-2-.17-4.15,1.85-6.15-.92,2-2.13,6.12-3.31,4.11-6.89-2.78-7-5.95-13.43-7-21-19.12,32.31-46.77,62.09-60.87,97.91l9,.33c3.25-3.45,4.52-9.12,9.28-12-1,5.67-5.36,9.74-6.95,15.17,4.5-3.43,5.49-9.79,11-13.06-1.18,6.6-5.72,10.55-8.43,16.29l.72.53c15.61-22.1,37.63-37.4,55.42-57.3C285.76,212.05,285.32,207.37,284.88,202.7ZM478,193c10.35-20.05,20.26-10.12-8.24-28.1-14.55,12.53-10.74-7.37-22.32-7.07-9.25.59-10.53,13.92-12.28,21.12-.29,1.94.05,3.33,1.85,4.27,10.2,7.37,13.57,20.5,22.16,29.65.77-8.65-9.81-18.42-3.92-25.91a15.55,15.55,0,0,1,6.78,9.59l4-2,1.24,2.15,2.6-4c3.41-.2,3.6,2.76,5.43,4.34C476.3,195.52,477.46,194.38,478,193Zm-29.92-46.14c2.86-1.74,4.3-2,7.29-.53.28-1,.57-2.11.93-3.46,2.89,1.71,4,5.32,7.86,5.95.4,1.7.9,3.83,1.49,6.32,8.75-3.33,24.4,11.85,28.62,19.07,12.66.58,7.72-7.29,19.69,6.74.63-9.25-8-16.59-11.41-24.93-5.79-9-7.61.68-16.51-15.16-3.66-4.54-11.13,4.86-14-2.57-12.93-28.09-6.21-8.38-25.86-9.92C443.16,135.46,446.66,140.82,448.06,146.85Zm39.48,446.81c2,2.44,2,2.44.15,5.25A311.88,311.88,0,0,1,609.32,525.1c-52.05,11.37-107.46,38.81-140.57,81.27ZM632.07,261.18c-1.4,6.38-4.52,12.05-7.33,17.84-.93,1.92-1.53,1.81-4.35-.43-.84,1.19-1.53,2.2-.93,3.91.64,8.25-9.15,4.33-5.05,18.32,15-14.76,18.8,16.14,21.66,26,2.06-8,2.3-16.48,1.9-24.57-1.35-2-.61-3.62.58-5.32,3.64-12.47,1.22-27-4.3-38.7l-1.07-.15A24.18,24.18,0,0,0,632.07,261.18Zm-202.3-130c3.42-4.91,8.69-5.43,13.14-8,1.8,2.7,3.91,3.6,6.78,1.26-8.42-4.12-16.94-23.51-19.58-6.8-.53,4.46-2.85,3.31-6.2,5.29ZM545.46,564c-4.29,3.71-10.83,5.19-12.66,10.63l.62.6,13.16-6.51C546.16,566.94,545.86,565.7,545.46,564Zm5.59-360.37c3-6.78-5-8.7-8.73-12.3-.24.26-.48.52-.73.77ZM929.74,557.8c-1.73-3.22-5.14-5.31-15.1-9.12C919.41,552.17,923.73,556.35,929.74,557.8ZM581.48,552c-8.74-.67-12.34.24-17,4.51ZM245.35,806.09A22.65,22.65,0,0,0,239.5,819C241.89,814.82,244.3,810.75,245.35,806.09ZM369,792.87c4-2.31,4.54-6.24,6.16-9.45C372.09,785.72,368.54,787.73,369,792.87ZM949.51,573.08c-1.36-3.31-4.89-5.69-9.71-6.5C942.67,569.74,946.2,571,949.51,573.08ZM279,441.61c4.13-3.7,2.83-7,1.26-10.3l-.88,0C279.28,434.52,279.17,437.7,279,441.61Zm93.33-151.08c-4.86-1.38-3.2,7.41-4.76,10.33l.76.14Zm-25.59,537a21.1,21.1,0,0,0,5.7-9.51C349.62,820.3,347,822.7,346.76,827.53ZM306,913c2-2.51,1.92-6.71-.57-12.16C305.57,904.8,305.75,908.75,306,913Zm20.34-66.81c-.27,2.38-.31,4.79-.45,7.69,3.73-2.74,2.5-5.85,2.45-9.36C327.31,845.32,326.35,845.71,326.29,846.2Zm31.08-42.9.68.59c2.08-3.31,6.85-4.86,5.73-9.35C361.52,798.1,358.27,799.83,357.37,803.3Zm-73.15,63.77-.63,0c-.14,2.29-.28,4.57-.46,7.47l3.16-1.78Zm141.86-685,1,.08c.11-3.22,2.28-6.27-.13-9.71ZM329.66,362.55c2.86-1.7,5.23-4.67,7.41-9.38C333.57,355.3,332.19,359.08,329.66,362.55Zm10.7,460.16c3.18-2.09,3.51-3.48,1.65-7.62C340.07,817.7,340.79,820.22,340.36,822.71Zm84.35-322.3-3.91,3.68,2.11,3.76.75-.07C424,505.58,424.28,503.38,424.71,500.41Zm44.81-274.57c3.44.34,4.33-5.79.47-5.39C469.83,222.22,469.68,224,469.52,225.84Zm-126.8,603a4.41,4.41,0,0,0-2.66,4.8l3.08,1.31C343,832.75,342.87,831.05,342.72,828.86Zm-58.5,13.93-.71.31c1.31,3.07,1.68,6.54,4.76,8.84ZM389.61,759c2.38-.32,2.38-.32,6.15-6.69C392.89,754.36,390.85,756.15,389.61,759Zm-41.49,55.5c2.36-1.93,4.11-3.7,4.39-6.44C351.17,810.12,347.83,810.82,348.12,814.52ZM407.26,732c4.32-1.23,5.39-2.49,4.86-5.62ZM333.58,843.16c2.29-1.4,2.06-3.37,1.66-6.11C333,839.65,333,839.65,333.58,843.16Zm335.3-451-.71-.33q-2.05,4.6-4.12,9.2l.76.35Q666.85,396.74,668.88,392.13Zm-261-275-5.42-2.3-.35.85C404.68,118.44,404.68,118.44,407.92,117.11Zm154,440.18c-.43-1-.7-1.69-1.11-2.68l-4.68,3,.31.79ZM272.32,851.62c1.62-1.76,3.89-3.36.9-5.88Zm106.86-82.33a9.62,9.62,0,0,0,5.12-5.45A11.69,11.69,0,0,0,379.18,769.29ZM418.11,181c.1.8.22,1.66.35,2.64l5.21-.76.14-.55ZM299,225.44l2.26-5.76C297.87,220.53,299.26,223.28,299,225.44Zm328.36,39.67c1.94-2.39,2-2.84.17-4.82C626.41,263.21,626.41,263.21,627.37,265.11Zm-47.72-36.8c.3-1.66.51-2.89.73-4.11l-.65-.27-2.42,2.42Zm-295.87,511-.9-.07-.23,4.91.85.06C283.59,742.54,283.68,740.9,283.78,739.27ZM621.94,303.46l-.87-.2c-1,1.31-1.68,2.66-.21,4.37ZM448,567c2.63-.47,1.45-2.55,1.64-3.9Zm160.45-318c2.43-1.16,1.48-2.5.55-3.84ZM452,146.71c-.38,2.34-.19,2.48,3.45,2.34Zm-9.12-18.88c-1.92.78-1.92.78-1.26,3.21ZM524.44,353.5,524,353l-3.5,2.95,1,.84ZM440.52,139.92c0,.06.37.25.58.38l1-1.62-1-.51C440.93,138.75,440.69,139.32,440.52,139.92ZM280.42,462.57c-1.85,1.23-1.13,2,.08,3.22C280.46,464.47,280.45,463.69,280.42,462.57ZM482.17,606.72l-.43-.49-2.09,1.88.65.46C480.92,608,481.54,607.33,482.17,606.72Zm35.05-248.79-1.47,3.25C517.74,360.54,518.12,359.84,517.22,357.93Zm120.11-28.25-.68-.06-.17,2.52.62.05Zm-232.5,147.8.53.23c.28-.65.55-1.31.83-2l-.79-.25ZM294.21,429l.63.43,1.58-1.95-1-.59C295,427.55,294.62,428.25,294.21,429Zm78.72,346.69-.75-.29-1.13,2.72.94.44C372.31,777.56,372.62,776.61,372.93,775.65ZM631,254.21l.58.13a1.49,1.49,0,0,0-.11-2l-.51.15Z"/><path class="cls-1" d="M114,76.86c23.82-21.47,49.33-40.74,75.22-59.68,5.4-2.83,26.35-22.85,30.21-16.12-12.84,10.54-23.8,22.12-32.09,36.45-32,40.46-56.53,87-72.69,135.83,12.42-2.47-2,30.1-3.06,36.27-5.86,16.18-8.73,33.78-10.92,50.52-3.77,22.24-6.63,45.86,2.6,67l3.27-.19c2.69,10,10.57,17.6,10.52,28.33,2.54,14.9,7,42.53,17.85,52.59,3.06.67.62,3.82,2.31,5.26,1.18,1,2.11,2.29.86,4.12.14,2.21,3.05,5,4.36,6.94,2.32,2.84,2.55,5.53,6.59,8.19,5-4.78,6.95-4,9.31,2.53l1.39.25c8.5,9.36,10.47,20.82,17.16,30.75,5.27,3.68,5.48,10.75,10.71,14.46.55,3.43,3.95,4.91,5.36,7.81.63,1.3,1.8,2.92,3,3.25,3.22.89,4.13,3.63,5.73,5.87,3.66-.29,4.81,2.23,6.22,5.11,4.4,5,22.3,13.79,9.78,19.54-3.54-5-10.85-7.21-11.94-13.41-.33.4-.65.79-1.33,1.59-.27-1.83-2.95-1.44-2.18-4,.35-1.16-2.74-.07-2.56-2.13l-2.57.7L195,502.59l1-1.63c-8.93-5.76-15.76-14.62-21.07-23.7-2.1-3.78-2.76-8.05-6.77-10.47l-2.69.53c-5.86-6-2.91-15.21-9.63-20.24.68,3.41,1.37,6.81,2.11,10.46l-3.58,2.35c-1.61-3.75-2.3-7.36-4.65-10.34,0,2.3-.25,4.28-3.21,4.41-3.8-11.72-12.69-21.56-19.24-32,.8,8.73,3.81,15.18,4.85,23.83-7.9-10.57-4.8-26.83-14-36.12l1.79,3.17c-1.08.85-2,1.6-3.35,2.61-4.39-10.72-5.61-21.72-8.52-32.39a3.75,3.75,0,0,1-3.13,3.87c-5-4.91-3.56-14.23-5.25-20.81-1.39-9.28-2.79-18.61-3.61-27.95-6.66.6-5.08-7.71-6.56-12-.93-12.87-6.75-30.27-1.92-42.09,4.22-6.32,2-15.46,4.11-22.74.79-9,5.2-18.13,4.56-27-2.56,10.05-5.64,19.94-6.71,30.29-.42,4.09-.59,4.15-5.09,4.29.14-3.61,1.32-7.71.87-11.17-2-2.15-1-4.55-.61-6.75,1.89-12.35,5.23-24.58,6.48-37h-4.4c1.08-13.21,8.69-25.36,13-37.86.92-4,5.54-4.18,6.73-7.77,14.71-37.82,31-75,53.76-108.78-23.31,18.45-42.1,44.16-55.11,71.17-7.31,12.59-14.71,25.14-21.9,37.8-1.78,5.19-7.11,6.82-9.61,11.39-.11.27-.92.24-1.94.46,12.5-26.47,24.44-52.93,39.79-77.81,15.38-23.34,37.5-41.18,56-61.71C137.54,62.85,108.28,89,87.68,120.17c-12,17.58-13.14,45.87-34.17,55.24l-2.25-2c-7.06,22.06-20.18,43.49-20.37,67.19,0,13.45-.05,27.51-3.85,40.45-.92,3.1-5.29,3.69-4.05,7.23,3.84,28.73,22.89,54,22.39,83.17L42.16,374c-13-16-18.44-36.82-26.39-55.63-4.89-11-6-22.83-7.58-34.43-3.55-4.5-5.58-9.74-7.85-14.84,4.6-5.86,9,4.23,13,6.63,5.4-6.41-2-15.8,2.36-22.24,4,4.45,2.9,11.67,4.28,17.36,5.1-14.93,1.43-31,5.42-45.93,8.12-24.84,17.13-49.84,22.85-75.41,6.25-3,13.47-7.36,11.49,3.51,6.22-7,9.2-16.81,13.8-25.05C80.78,111,94.35,98.1,104.62,83.31c.25.81.4,1.28.63,2C108.33,82.34,111,79.46,114,76.86ZM26.67,331.75q-5.1-15.18-10.21-30.35C16.18,307.23,21.55,323.12,26.67,331.75Zm64.9-121.06c7.32-1.6,4.26-9,5.73-14.26l-.66-.12C95,201,93.33,205.71,91.57,210.69ZM105,364.81l-1,.19c.05,2.3,0,4.61,1.38,6.69l1-.18C106,369.28,105.51,367.05,105,364.81Zm-5.72-138.6-.94-.22c-.27,1.2-.53,2.39-.79,3.59l.76.18C98.68,228.57,99,227.39,99.32,226.21ZM103,345.72c-1.78.57-1.44,1.27-.09,2.74C102.9,347.15,102.92,346.55,103,345.72Zm39.54,93.67-.45.24.9,2.07.75-.3Z"/><path class="cls-1" d="M127.38,542.35C115,535,84.77,519.77,81.48,506.05c-4.66-2.75-7.2-7.76-9.79-12.15C65.24,489,66.33,486,61.1,481.44c-8.54-17.17-.67-12-19.48-23.37,2.59-4.76,5.47-1.47,8.52-.4-5.47-12.79,7.35-3.09,12.87-6.81-8.15-15.71-23-27.7-28.26-44.83-1.71-6.19-8.07-9.72-9.44-16,4.7-5.82,9.47,5.54,14.12.62-.6-2.81-4-4.19-4-7.64,1.28.28,3.26-2.27,3.25,1.3,0,.2.54.4.83.62,3,2.56,6.75,4.63,9.31,7.52,0,2.45,1.45,4.11,3,5.78,2.76,5.32-6.2,3.22-9.38,2,4.78,15.85,19.28,25.94,27,40.43,3.61,3.19,3.11,5.34.62,9l1.75,1.08-4.33,3.91c-4.27-3-7.44-.58-11.73.48,5.42,4.63,10.59,7.28,17.83,7.05C74.11,469,86.39,472,91.3,476.8l-2.14,3.51c7.16,7.18,2.28,3.66,5.78,11.39-2.39,2.67-2.64-2.08-4.56-.93,0,3.46,2.9,3,4.26,3.35,1.86,1.69.9,4.12,2.85,5.11,1.78-1.76-.84-5,2.84-6.41,1.85,8.11,5.7,15.46,4.9,23.89,13.65,8.15,27.9,15.86,38.28,28,4.14,3.73,16.51,11.17,17.49,15.91,0,.57,1.24,1.47,2,1.61,3.84.69,6.15,3.36,8.59,6l-.75,1c4.07.79,1.73,2.25,6.08,1.85a2.45,2.45,0,0,0,.1,2.53c2.44-2.25,4.42,2.22,6.93-.29l.39.7-2,4.77-9.75-2.74c1.71-4-2.84-3.63-5.42-3.33l.4-2.26a19.14,19.14,0,0,1-9.89-6.69c-5.26-.26-7.66-5-11.55-7.36-2-5.72-10.11-4.6-11.87-11.24C131.44,545.37,129.51,543.77,127.38,542.35Zm-25.95-28c1.4-3-1.6-5-1.38-7.55,0-.5-1.15-1.11-1.93-1.81C95.92,509.66,99.17,511.59,101.43,514.31Zm-25-34.92c3,2.92,4.9,7,9.18,8.5C84.42,483,79.15,482.62,76.44,479.39Z"/><path class="cls-1" d="M108,451c-1.13-13-11.74-22.14-17.17-33.48-7.07-10.93-10.61-23.35-15.9-35.14C57.85,330.65,55,274.78,61.87,220.93c-.38-3,1.39-7.89-2.29-9.13a3.8,3.8,0,0,0-4.64,2c-2.63,8.51-2.45,17.88-4,26.7C44.23,302.65,55.31,367,83.22,422.78c-4.48-3.44-7.27-5.68-11.56-9.25l-4.29,3.33c6.88.29,8.72,5.74,12.25,9,9.48,8.73,17.23,18.8,25.86,28.1-.35-1.75-.53-2.7-.78-3.94,2.52,1.28,2.57,2.94,1.45,4.92l6.74,9.21c.5-2.14,1.86-4.06,0-6-1.13-2.77-1.11-6.65-5-7.24.42,1,.84,2,1.25,3l-.7.19Z"/><path class="cls-1" d="M313.26,808.41c-1.2,3.18-4.7,5.71-3.75,9.39.26,3.53-9.95,19.12-2.87,18.61-.48-2.56-.86-4.89,1.56-6.77,4.1-8.72,8.56-17.71,12.91-26.42,5.41-10.49,9.25-21.32,16.36-30.8-7.58-2.89-18.11,26.12-24.07,31.56a1914.58,1914.58,0,0,0,76.21-221.21l-3-1.28c-17,58-34.22,116-57.19,172-8.14,17.41-14.5,35.52-21.61,53.36-.31,2.12-3.11,5.33-.36,6.66,3.46,1,3-4,4.78-5.74Z"/><path class="cls-1" d="M364.33,641.91l-3.16-1.34c1-5.68,5.77-11.08,6.51-16.71-2.81-5.93,5.78-11.13,2.06-17.36-4.36,4.26-5,10-8.53,14.28-.83-6.25,5.29-10.25,5.3-16.59l-4.4,3.47-1.47-4.1c-7.91-2.32-7.83,15.26-9.72,20.72-3.54,25.35-15.75,48.68-20.73,73.11,10.42-4.36,13.84-16.89,19-26C354.25,661.45,361.2,652.86,364.33,641.91Z"/><path class="cls-1" d="M317.63,621.56c-4.77-10.51-12.12-19-20.27-26.84-7.31-6.31-12.88-16.37-22-19.83-16-19.08-40.61-29.21-61.11-43.08-20.73-12.85-43.1-22.55-63.2-36.44-3.5,4.26,18.24,15.35,21.76,18.32,22.75,13,46.09,26,68.09,39.86-.66,2.72-3.15-1-4,1.58,19.69,8.45,36.39,23.31,52,37.79C299.48,601.92,306.1,613.51,317.63,621.56Z"/><path class="cls-1" d="M352.74,754.31a375.08,375.08,0,0,0,36-97.84c1.12-2.3,2.19-5.17,1.79-7.54-.31-11.87,4.32-22.94,7-34.32,3.44-13.53,9.1-26.41,14.55-39.23,3.49-9.82,12.57-18.83,12.33-29.31-2.53,0-3.14,1.68-3.82,3-21.3,36.63-30.29,78.06-37.47,119.36-7.32,29.55-19.35,57.57-31,85.6Z"/><path class="cls-1" d="M906.55,563.83c26.94,19.61,49.62,42.07,68.21,69.56C961,604.49,935.3,583,910.46,563.48,909.08,562.52,907.71,562.05,906.55,563.83Z"/><path class="cls-1" d="M71.49,454c-1.17,1.58-3.33,2.1-3.72,4.33C70.93,458.09,71.75,457.15,71.49,454Z"/><path class="cls-1" d="M327.38,615.76l-3.27.08c2.23,2.06,2.23,2.06,3.13-.16Z"/><path class="cls-1" d="M686.91,521.9,690,520C687.61,520.14,687.61,520.14,686.91,521.9Z"/><path class="cls-1" d="M183.23,405.09c-.24-1.06-1.09-1.33-2-1.65-.69,1.16,1.25,1.44,2.06,1.5Z"/><path class="cls-1" d="M415.4,306.43,413.45,301c-5.76-3.13-8.72,14.8-11.13,18.87,3.85-1.14,4.56-2.32,3-4.62,5.54-.94,4.37-10.58,10.13-8.94Z"/><path class="cls-1" d="M359.07,335c-6.53,3.49-8.9,13.21-7.72,20.13,3.32-1.14,2.64-4,3.54-6C356.17,344.23,359.32,340.43,359.07,335Z"/><path class="cls-1" d="M426,145.8l-1.16-5.12C421.86,142.43,423.32,148.37,426,145.8Z"/><path class="cls-1" d="M278.09,207.78c-2.65,3.16-5.7,11.1.74,11.23C278.82,215.22,279.88,211.41,278.09,207.78Z"/></svg>