<svg width="35" height="35" viewBox="0 0 35 35" fill="none" xmlns="http://www.w3.org/2000/svg">
<g clip-path="url(#clip0_50_368)">
<path d="M-4.375 30.625H21.875V27.7083H-4.375M21.875 11.6667H18.9583V7.29167H21.875M21.875 4.375H-1.45833V18.9583C-1.45833 20.5054 -0.843752 21.9892 0.25021 23.0831C1.34417 24.1771 2.8279 24.7917 4.375 24.7917H13.125C14.6721 24.7917 16.1558 24.1771 17.2498 23.0831C18.3438 21.9892 18.9583 20.5054 18.9583 18.9583V14.5833H21.875C22.6485 14.5833 23.3904 14.276 23.9374 13.7291C24.4844 13.1821 24.7917 12.4402 24.7917 11.6667V7.29167C24.7917 5.67292 23.4792 4.375 21.875 4.375Z" fill="black"/>
</g>
<defs>
<clipPath id="clip0_50_368">
<rect width="35" height="35" fill="white"/>
</clipPath>
</defs>
</svg>
