<svg width="35" height="35" viewBox="0 0 35 35" fill="none" xmlns="http://www.w3.org/2000/svg">
<path d="M9.47917 8.86667C8.34167 8.925 7.29167 9.65417 6.88333 10.7917L4.375 17.6896V32.0833H10.2083V18.725L12.2792 13.0375L15.6042 14.5833H20.4167V11.6667H16.2604L10.6312 9.04167C10.2521 8.91042 9.85833 8.85208 9.47917 8.86667ZM13.125 24.7917H30.625V27.7083H13.125M14.5833 5.10417C14.5833 5.87771 14.276 6.61958 13.7291 7.16656C13.1821 7.71354 12.4402 8.02083 11.6667 8.02083C10.8931 8.02083 10.1513 7.71354 9.60427 7.16656C9.05729 6.61958 8.75 5.87771 8.75 5.10417C8.75 4.33062 9.05729 3.58875 9.60427 3.04177C10.1513 2.49479 10.8931 2.1875 11.6667 2.1875C12.4402 2.1875 13.1821 2.49479 13.7291 3.04177C14.276 3.58875 14.5833 4.33062 14.5833 5.10417ZM30.625 21.1458C30.625 21.726 30.3945 22.2824 29.9843 22.6926C29.5741 23.1029 29.0177 23.3333 28.4375 23.3333C27.8573 23.3333 27.3009 23.1029 26.8907 22.6926C26.4805 22.2824 26.25 21.726 26.25 21.1458C26.25 20.5657 26.4805 20.0093 26.8907 19.599C27.3009 19.1888 27.8573 18.9583 28.4375 18.9583C29.0177 18.9583 29.5741 19.1888 29.9843 19.599C30.3945 20.0093 30.625 20.5657 30.625 21.1458ZM13.125 16.0417V18.9583H16.0417V20.4167C16.0417 22.0354 17.3396 23.3333 18.9583 23.3333H21.875C23.4937 23.3333 24.7917 22.0354 24.7917 20.4167V16.0417H21.875V18.9583H18.9583V17.5C18.9583 17.1132 18.8047 16.7423 18.5312 16.4688C18.2577 16.1953 17.8868 16.0417 17.5 16.0417H13.125Z" fill="black"/>
</svg>
