<svg width="35" height="35" viewBox="0 0 35 35" fill="none" xmlns="http://www.w3.org/2000/svg">
<g clip-path="url(#clip0_50_360)">
<path d="M-4.375 8.75008L5.83333 18.9584H-4.375V23.3334H10.2083L20.4167 33.5417L22.2396 31.7188L-2.55208 6.92717L-4.375 8.75008ZM22.6042 18.9584H24.7917V23.3334H22.6042V18.9584ZM18.9583 18.9584H21.1458V23.3334H18.9583V18.9584ZM20.1979 7.11675C21.1021 6.22716 21.6562 5.00216 21.6562 3.64591H19.4688C19.4688 5.10425 18.2292 6.34383 16.7708 6.34383V8.53133C20.0375 8.53133 22.6042 11.2001 22.6042 14.4667V17.5001H24.7917V14.4667C24.7917 11.2147 22.925 8.41467 20.1979 7.11675ZM13.8542 12.6876H16.0854C17.6167 12.6876 18.9583 13.7667 18.9583 15.6772V17.5001H21.1458V15.1813C21.1458 12.5563 18.8125 10.573 16.0854 10.573H13.8542C12.3958 10.573 11.1562 9.14383 11.1562 7.65633C11.1562 6.16883 12.3958 5.10425 13.8542 5.10425V2.91675C12.5585 2.91675 11.3158 3.43146 10.3997 4.34765C9.48346 5.26385 8.96875 6.50647 8.96875 7.80216C8.96875 9.09786 9.48346 10.3405 10.3997 11.2567C11.3158 12.1729 12.5585 12.6876 13.8542 12.6876ZM17.5 23.2313V18.9584H13.2271L17.5 23.2313Z" fill="black"/>
</g>
<defs>
<clipPath id="clip0_50_360">
<rect width="35" height="35" fill="white"/>
</clipPath>
</defs>
</svg>
