<svg width="35" height="35" viewBox="0 0 35 35" fill="none" xmlns="http://www.w3.org/2000/svg">
<path d="M30.3188 20.3438L26.9208 21.248L24.0042 19.6001V15.4001L26.9208 13.7522L30.3188 14.6563L31.0771 11.8417L28.4958 11.1563L29.1667 8.57508L26.3521 7.81675L25.4479 11.2147L22.5312 12.8626L18.9583 10.7626V7.46675L21.4521 4.973L19.3813 2.91675L17.5 4.798L15.6188 2.91675L13.5479 4.973L16.0417 7.46675V10.7626L12.3958 12.8626L9.47917 11.2147L8.63333 7.81675L5.83333 8.57508L6.51875 11.1563L3.9375 11.8417L4.69583 14.6563L8.09375 13.7522L11.0104 15.4001V19.6147L8.09375 21.2626L4.69583 20.3584L3.9375 23.173L6.51875 23.8584L5.83333 26.4251L8.64792 27.1834L9.55208 23.7855L12.4688 22.1376L16.0417 24.2376V27.5334L13.5479 30.0272L15.6188 32.0834L17.5 30.2022L19.3813 32.0834L21.4375 30.0272L18.9583 27.5334V24.2376L22.6042 22.123L25.5208 23.7709L26.425 27.1688L29.1667 26.4251L28.4813 23.8438L31.0625 23.1584L30.3188 20.3438ZM13.8542 15.4001L17.5 13.2855L21.1458 15.4001V19.6001L17.5 21.7147L13.8542 19.6001V15.4001Z" fill="black"/>
</svg>
